<svg width="24" height="96" xmlns="http://www.w3.org/2000/svg"><style>#filled:not(:target){display:none}#filled:target + #default{display:none}</style><defs><symbol id="icon"><path fill-rule="evenodd" d="M2 5.5a.5.5 0 0 1 .5-.5h19a.5.5 0 0 1 0 1h-19a.5.5 0 0 1-.5-.5M2 12a.5.5 0 0 1 .5-.5h19a.5.5 0 0 1 0 1h-19A.5.5 0 0 1 2 12m0 6.5a.5.5 0 0 1 .5-.5h19a.5.5 0 0 1 0 1h-19a.5.5 0 0 1-.5-.5" clip-rule="evenodd"/></symbol><symbol id="icon-filled"><path fill-rule="evenodd" d="M1.75 5.5a.75.75 0 0 1 .75-.75h19a.75.75 0 0 1 0 1.5h-19a.75.75 0 0 1-.75-.75m0 6.5a.75.75 0 0 1 .75-.75h19a.75.75 0 0 1 0 1.5h-19a.75.75 0 0 1-.75-.75m0 6.5a.75.75 0 0 1 .75-.75h19a.75.75 0 0 1 0 1.5h-19a.75.75 0 0 1-.75-.75" clip-rule="evenodd"/></symbol></defs><g id="filled"><use x="0" y="0" href="#icon-filled" fill="#0a0a0a"/><use x="0" y="24" href="#icon-filled" fill="#fff"/><use x="0" y="48" href="#icon-filled" fill="#0a0a0a"/><use x="0" y="72" href="#icon-filled" fill="#fff"/></g><g id="default"><use x="0" y="0" href="#icon" fill="#0a0a0a"/><use x="0" y="24" href="#icon" fill="#fff"/><use x="0" y="48" href="#icon" fill="#0a0a0a"/><use x="0" y="72" href="#icon" fill="#fff"/></g></svg>