<svg width="24" height="96" xmlns="http://www.w3.org/2000/svg"><style>#filled:not(:target){display:none}#filled:target + #default{display:none}</style><defs><symbol id="icon"><path fill-rule="evenodd" d="M16.1793 16.8243C14.674 18.177 12.6831 19 10.5 19 5.8056 19 2 15.1944 2 10.5S5.8056 2 10.5 2 19 5.8056 19 10.5c0 2.1515-.7993 4.1162-2.1172 5.6135l4.9729 5.0351a.5.5 0 1 1-.7114.7027zM18 10.5c0 4.1421-3.3578 7.5-7.5 7.5S3 14.6421 3 10.5 6.358 3 10.5 3 18 6.3579 18 10.5" clip-rule="evenodd"/></symbol><symbol id="icon-filled"><path d="M17 10.5c0 3.5899-2.9101 6.5-6.5 6.5C6.9102 17 4 14.0899 4 10.5 4 6.9102 6.9101 4 10.5 4S17 6.9101 17 10.5"/><path fill-rule="evenodd" d="M19 10.5c0 2.0613-.7337 3.9512-1.9542 5.4228l4.9878 5.0501a.75.75 0 0 1-1.0672 1.0541l-4.9758-5.038C14.5094 18.2435 12.5931 19 10.5 19 5.8056 19 2 15.1944 2 10.5S5.8056 2 10.5 2 19 5.8056 19 10.5M10.5 18c4.1421 0 7.5-3.3579 7.5-7.5S14.6421 3 10.5 3 3 6.3579 3 10.5 6.3579 18 10.5 18" clip-rule="evenodd"/></symbol></defs><g id="filled"><use x="0" y="0" href="#icon-filled" fill="#0a0a0a"/><use x="0" y="24" href="#icon-filled" fill="#fff"/><use x="0" y="48" href="#icon-filled" fill="#0a0a0a"/><use x="0" y="72" href="#icon-filled" fill="#fff"/></g><g id="default"><use x="0" y="0" href="#icon" fill="#0a0a0a"/><use x="0" y="24" href="#icon" fill="#fff"/><use x="0" y="48" href="#icon" fill="#0a0a0a"/><use x="0" y="72" href="#icon" fill="#fff"/></g></svg>